<?xml version="1.0" encoding="UTF-8"?>
<svg id="uuid-fe0d77ed-179a-493b-b9e9-5d3cc89e7369" data-name="Layer 2" xmlns="http://www.w3.org/2000/svg" viewBox="0 0 42 20">
  <path d="M27.45,12.31v1.76c0,.45-.36.81-.81.81h-11.29c-.45,0-.81-.36-.81-.81v-1.76c0-.45-.36-.81-.81-.81h0c-.45,0-.81.36-.81.81v2.03c0,1.19.96,2.15,2.15,2.15h11.83c1.19,0,2.15-.96,2.15-2.15v-2.03c0-.45-.36-.81-.81-.81h0c-.45,0-.81.36-.81.81Z" fill="#303030" stroke-width="0"/>
  <g>
    <path d="M22.1,11.07h-2.2v-6.47c0-.61.49-1.1,1.1-1.1h0c.61,0,1.1.49,1.1,1.1v6.47Z" fill="#303030" stroke-width="0"/>
    <path d="M26.06,7.47h0c-.43-.43-1.13-.43-1.56,0l-3.5,3.5-3.5-3.5c-.43-.43-1.13-.43-1.56,0h0c-.43.43-.43,1.13,0,1.56l4.4,4.4c.36.36.95.36,1.31,0l4.4-4.4c.43-.43.43-1.13,0-1.56Z" fill="#303030" stroke-width="0"/>
  </g>
</svg>