<?xml version="1.0" encoding="UTF-8"?>
<svg id="uuid-731fa357-1257-4fa1-b227-a9d8a6dd328a" data-name="Layer 1" xmlns="http://www.w3.org/2000/svg" viewBox="0 0 651.52 214.59">
  <path d="M540.72,214.59v-8.8l19.36-5.75c1.42-.4,2.54-1.04,3.35-1.94.82-.89,1.22-2.2,1.22-3.93V60.38h-38.72c-1.25,0-2.34.39-3.29,1.17-.95.78-1.53,1.88-1.76,3.29l-4.68,25.23h-13.73v-43.77h149.05v43.77h-13.73l-4.71-25.23c-.3-1.57-.9-2.71-1.76-3.41-.86-.71-1.91-1.05-3.16-1.05h-38.85v133.78c0,1.73.45,3.04,1.35,3.93.9.9,1.98,1.55,3.22,1.94l19.36,5.75v8.8h-72.53Z" fill="#010101" stroke-width="0"/>
  <g>
    <g>
      <rect x="4.43" y="4.43" width="151.68" height="151.68" rx="9.62" ry="9.62" fill="none" stroke="#010101" stroke-miterlimit="10" stroke-width="8.87"/>
      <polygon points="28.51 112.77 129.63 112.77 100.74 54.99 68.82 96.52 48.54 76.66 28.51 112.77" fill="#010101" stroke="#010101" stroke-miterlimit="10" stroke-width="8.87"/>
      <circle cx="75.46" cy="42.95" r="4.82" fill="#010101" stroke="#010101" stroke-miterlimit="10" stroke-width="8.87"/>
    </g>
    <g>
      <path d="M170.04,1.51h86.21v76.31c0,57.72-31.66,81.29-86.05,81.29,42.73-28.51,42.94-35.43,42.94-81.29h-43.1V1.51Z" fill="#010101" fill-rule="evenodd" stroke-width="0"/>
      <path d="M284.12,1.51h86.21v76.31c0,57.72-31.66,81.29-86.05,81.29,42.74-28.51,42.94-35.43,42.94-81.29h-43.11V1.51Z" fill="#010101" fill-rule="evenodd" stroke-width="0"/>
    </g>
  </g>
</svg>