<?xml version="1.0" encoding="UTF-8"?>
<svg id="uuid-589f9344-b5c9-46dc-a354-74e47c98d904" data-name="Layer 1" xmlns="http://www.w3.org/2000/svg" viewBox="0 0 400 400">
  <g>
    <rect x="32.47" y="119.06" width="161.87" height="161.87" rx="9.62" ry="9.62" fill="none" stroke="#010101" stroke-miterlimit="10" stroke-width="8.87"/>
    <polygon points="58.16 234.69 166.08 234.69 135.24 173.02 101.19 217.34 79.54 196.15 58.16 234.69" fill="#010101" stroke="#010101" stroke-miterlimit="10" stroke-width="8.87"/>
    <circle cx="91.56" cy="160.17" r="5.14" fill="#010101" stroke="#010101" stroke-miterlimit="10" stroke-width="8.87"/>
  </g>
  <path d="M256.73,284.15v-8.8l19.36-5.75c1.42-.4,2.54-1.04,3.35-1.94.82-.89,1.22-2.2,1.22-3.93v-133.78h-38.72c-1.25,0-2.34.39-3.29,1.17-.95.78-1.53,1.88-1.76,3.29l-4.68,25.23h-13.73v-43.77h149.05v43.77h-13.73l-4.71-25.23c-.3-1.57-.9-2.71-1.76-3.41-.86-.71-1.91-1.05-3.16-1.05h-38.85v133.78c0,1.73.45,3.04,1.35,3.93.9.9,1.98,1.55,3.22,1.94l19.36,5.75v8.8h-72.53Z" fill="#010101" stroke-width="0"/>
</svg>