<?xml version="1.0" encoding="UTF-8"?>
<svg id="uuid-2c8eae78-15b3-435c-af46-c887357ce1ac" data-name="uuid-589f9344-b5c9-46dc-a354-74e47c98d904" xmlns="http://www.w3.org/2000/svg" viewBox="0 0 400 400">
  <path d="M346.32,183.74l-65.05,65.02c-35.9,35.92-94.15,35.92-130.05,0-5.66-5.64-10.08-11.99-13.97-18.55l30.22-30.22c1.44-1.45,3.21-2.28,4.91-3.26,2.09,7.14,5.74,13.9,11.35,19.51,17.93,17.94,47.11,17.92,65.02,0l65.02-65.02c17.94-17.94,17.94-47.11,0-65.04-17.92-17.93-47.08-17.93-65.02,0l-23.13,23.15c-18.76-7.31-38.98-9.27-58.66-6.39l49.27-49.27c35.92-35.91,94.15-35.91,130.07,0,35.9,35.91,35.9,94.15,0,130.06ZM174.37,290.66l-23.14,23.15c-17.93,17.92-47.11,17.92-65.04,0-17.93-17.94-17.93-47.11,0-65.05l65.04-65.02c17.94-17.94,47.1-17.94,65.02,0,5.6,5.6,9.25,12.36,11.36,19.49,1.71-.99,3.46-1.8,4.9-3.23l30.22-30.21c-3.86-6.58-8.31-12.91-13.97-18.56-35.9-35.91-94.15-35.91-130.06,0l-65.02,65.02c-35.91,35.92-35.91,94.15,0,130.07,35.91,35.9,94.15,35.9,130.06,0l49.28-49.28c-19.69,2.9-39.91.92-58.66-6.38Z" fill="#010101" stroke-width="0"/>
</svg>